<svg width="41" height="40" viewBox="0 0 41 40" fill="none" xmlns="http://www.w3.org/2000/svg">
<rect x="0.300781" width="40" height="40" rx="20" fill="#F5F5F5"/>
<path d="M29.5689 21.7201C28.6289 21.0201 27.3459 21.1481 26.5839 22.0171C26.1139 22.5541 25.5209 23.0101 24.8479 23.3841C24.8439 23.2951 24.8459 23.2081 24.8319 23.1171C24.6539 22.0321 23.8259 21.2531 22.6719 21.2501H17.3539C16.8339 21.2841 16.4089 20.8161 15.8819 20.2381C9.24494 13.5671 17.3189 8.39808 20.3169 15.5581C23.2399 8.40008 31.3609 13.5871 24.7909 20.1711L25.8669 21.2151C29.6409 17.3301 29.1899 13.8751 27.6549 12.0941C25.7709 9.86808 22.0299 10.3121 20.3079 12.6141C18.5689 10.3201 14.8389 9.84908 12.9519 12.0971C11.3509 13.9551 10.9949 17.3441 14.7919 21.2671C15.4179 21.9421 16.1169 22.7841 17.3729 22.7491H22.6739C23.0199 22.7471 23.2839 22.9741 23.3399 23.3281L23.3569 23.4061C23.4069 23.9881 22.8699 24.1771 22.5359 24.2381C21.8519 24.3881 21.1359 24.4761 20.3959 24.4761V25.9761C21.2239 25.9761 22.0309 25.8801 22.8059 25.7131V25.7151C22.8279 25.7101 22.8459 25.7021 22.8679 25.6981C24.8279 25.2631 26.5529 24.3281 27.7119 23.0031C27.9659 22.7151 28.3509 22.6831 28.6729 22.9231C29.1489 23.2601 29.1929 24.1051 28.7949 24.5231C24.4309 29.6731 14.2879 29.0301 11.0009 23.1651L9.71094 23.9281C11.7549 27.3901 15.8509 29.5411 20.3969 29.5411C24.1599 29.5411 27.6289 28.0761 29.9129 25.5221C30.8969 24.4781 30.7459 22.5521 29.5689 21.7201Z" fill="#232323"/>
</svg>
