<svg width="52" height="48" viewBox="0 0 52 48" fill="none" xmlns="http://www.w3.org/2000/svg">
<rect x="0.5" y="0.5" width="47" height="47" rx="23.5" stroke="#B7B7B6"/>
<path d="M33.2541 24.9361C33.0401 25.3641 32.7861 25.7991 32.4981 26.2291L31.2511 25.3951C31.5041 25.0171 31.7261 24.6371 31.9121 24.2651C33.0071 22.0761 32.9261 20.0011 31.6911 18.5701C30.9031 17.6651 29.7151 17.2271 28.4381 17.3761C26.8741 17.5541 25.5011 18.5511 24.6711 20.1121L24.0131 21.3471L23.3491 20.1171C22.5011 18.5471 21.1171 17.5471 19.5501 17.3741C18.2801 17.2351 17.1001 17.6701 16.3151 18.5721C15.4851 19.5351 15.1661 20.7901 15.3981 22.1991C15.7001 24.0391 17.2691 27.7511 24.3901 31.9541L23.6271 33.2461C16.3641 28.9581 14.3381 25.0051 13.9171 22.4431C13.6171 20.6071 14.0651 18.8831 15.1811 17.5901C16.2961 16.3081 17.9461 15.6841 19.7151 15.8831C21.4021 16.0701 22.9151 16.9621 24.0051 18.3781C25.0811 16.9681 26.5851 16.0771 28.2681 15.8851C30.0431 15.6851 31.7061 16.3031 32.8251 17.5881C34.4771 19.5021 34.6331 22.1781 33.2541 24.9361ZM29.7491 26.5001H28.2491V29.2501H25.4991V30.7501H28.2491V33.5001H29.7491V30.7501H32.4991V29.2501H29.7491V26.5001Z" fill="#232323"/>
</svg>
