<svg width="52" height="45" viewBox="0 0 52 45" fill="none" xmlns="http://www.w3.org/2000/svg">
<path d="M34.8512 0C25.497 0 17.0114 3.7296 10.8062 9.7815C9.51502 11.0448 8.31208 12.4057 7.22524 13.8641C2.94293 19.6095 0.402344 26.7342 0.402344 34.4489V44.3001H10.2582C22.6406 44.3001 33.4997 37.7605 39.5701 27.9465C39.5794 27.9372 39.5841 27.9326 39.5887 27.9233C40.5827 26.3116 41.4466 24.6163 42.1665 22.8467H42.1851C42.8446 21.0957 43.3787 19.2611 43.806 17.5751C43.8896 17.25 43.9639 16.9388 44.0382 16.6323C44.0382 16.6323 44.0382 16.6276 44.0429 16.623C44.4795 14.44 44.7024 12.1781 44.7024 9.86046V0H34.8512ZM37.0992 18.2672C36.3932 19.9439 35.5619 21.5509 34.6097 23.079C28.5346 32.8605 17.6988 39.3722 5.33489 39.3722C5.33489 30.9887 8.326 23.3112 13.2957 17.3382C13.9645 16.5301 14.6752 15.7544 15.4137 15.0113C15.9664 14.4632 16.533 13.9291 17.1229 13.4182C23.1794 8.12338 31.0984 4.92326 39.7745 4.92326C39.7745 9.65145 38.8224 14.1613 37.0946 18.2625L37.0992 18.2672Z" fill="#55BB7A"/>
<path d="M51.9976 20.0043C51.8397 20.5523 47.6735 23.1904 42.1836 22.8514C42.8431 21.1004 43.3772 19.2658 43.8046 17.5798L48.1287 15.8938L51.9976 20.0089V20.0043Z" fill="#F2C15B"/>
</svg>
