<svg width="17" height="16" viewBox="0 0 17 16" fill="none" xmlns="http://www.w3.org/2000/svg">
<g clip-path="url(#clip0_5917_778)">
<path d="M12.5523 13.66L8.66425 11.418C8.63896 11.4032 8.6102 11.3955 8.58092 11.3955C8.55163 11.3955 8.52288 11.4032 8.49758 11.418L4.60958 13.66L5.54092 9.26999C5.54706 9.24146 5.54555 9.21182 5.53654 9.18407C5.52752 9.15632 5.51132 9.13145 5.48958 9.11199L2.15625 6.10666L6.61892 5.63532C6.64803 5.63241 6.67587 5.62188 6.69963 5.60479C6.72338 5.5877 6.74222 5.56466 6.75425 5.53799L8.58092 1.43799L10.4076 5.53799C10.4196 5.56457 10.4383 5.58755 10.4619 5.60463C10.4856 5.62171 10.5133 5.63229 10.5423 5.63532L15.0063 6.10666L11.6722 9.11132C11.6505 9.13093 11.6343 9.15592 11.6253 9.18377C11.6163 9.21163 11.6148 9.24136 11.6209 9.26999L12.5523 13.66ZM8.58092 10.3967C8.78292 10.3967 8.98425 10.448 9.16425 10.552L11.1083 11.6733L10.6429 9.47732C10.5563 9.07066 10.6943 8.64666 11.0029 8.36866L12.6696 6.86599L10.4376 6.62999C10.2343 6.60816 10.0404 6.53346 9.87497 6.41333C9.70958 6.29321 9.57854 6.13185 9.49492 5.94532L8.58092 3.89532L7.66692 5.94532C7.58324 6.13194 7.4521 6.29336 7.28658 6.41349C7.12106 6.53362 6.92695 6.60827 6.72358 6.62999L4.49158 6.86599L6.15892 8.36932C6.31075 8.50626 6.42394 8.68071 6.48712 8.87517C6.5503 9.06963 6.56127 9.27729 6.51892 9.47732L6.05425 11.6733L7.99825 10.552C8.17825 10.448 8.37958 10.3967 8.58158 10.3967H8.58092Z" fill="#232323"/>
</g>
<defs>
<clipPath id="clip0_5917_778">
<rect width="16" height="16" fill="white" transform="translate(0.580078)"/>
</clipPath>
</defs>
</svg>
